<mxfile host="app.diagrams.net" modified="2024-09-11T23:23:45.636Z" agent="Mozilla/5.0 (Windows NT 10.0; Win64; x64) AppleWebKit/537.36 (KHTML, like Gecko) Chrome/128.0.0.0 Safari/537.36" version="22.1.17" etag="iOVOVfNGayzdQMxokgq-" type="github">
  <diagram name="Page-1" id="JLV0uFSh_k2bjosw7qAf">
    <mxGraphModel>
      <root>
        <mxCell id="0" />
        <mxCell id="1" parent="0" />
      </root>
    </mxGraphModel>
  </diagram>
</mxfile>
